<svg xmlns="http://www.w3.org/2000/svg" viewBox="0 0 100 100"><g fill-rule="evenodd" fill="none"><path fill="#212b38" d="m85.13 15.06c19.41 19.212 19.41 50.36 0 69.57-19.404 19.215-50.866 19.215-70.27 0-19.404-19.211-19.404-50.36 0-69.57 19.405-19.211 50.867-19.211 70.27 0"/><path fill="#5d5f67" d="m14.804 84.58c.018.018.036.035.055.054l-.055-.054m-.055-.055c.015.015.03.03.045.044-.016-.015-.029-.029-.045-.044m-.056-.056c.015.014.03.03.044.045-.015-.016-.029-.03-.044-.045m-.058-.058c.017.017.034.033.05.049-.017-.017-.033-.032-.05-.049m-.944-.973c.307.326.621.649.939.968-.318-.319-.632-.642-.939-.968m-.053-.054c.017.016.033.034.049.05-.016-.017-.032-.034-.049-.05m-.051-.055c.014.014.029.03.042.045-.013-.015-.028-.031-.042-.045m-.051-.055c.012.014.027.029.04.042-.013-.013-.028-.029-.04-.042m-.051-.055c.012.013.024.026.037.04-.012-.013-.025-.027-.037-.04m-.06-.065c.014.017.03.032.045.049-.015-.015-.031-.033-.045-.049m-.052-.055c.006.005.012.012.017.018-.006-.007-.01-.012-.017-.018m-.049-.052c.004.004.009.01.013.013-.005-.004-.008-.008-.013-.013m-.045-.05c.002.002.005.006.007.008-.003-.003-.005-.005-.007-.008m-.045-.048c.001 0 .001.001.002.002-.001-.002-.001-.001-.002-.002"/><path fill="#141e28" d="m37.23 26.38l-14.271 14.13-3.25-.815-1.573-2.13-17.558 17.383c1.06 10.12 5.274 19.979 12.655 28 .001.001.001 0 .002.002.015.016.028.029.043.046.002.003.004.005.007.008.013.014.025.028.038.042.005.005.008.009.013.013.012.013.024.026.036.039.007.006.011.011.017.018.011.013.023.026.035.037.014.016.03.034.045.049.005.005.01.011.015.016.012.013.025.027.037.04.005.006.009.009.014.015.012.013.027.029.04.042.004.004.007.008.011.013.014.014.029.03.042.045.004.003.006.006.009.01.017.016.033.033.049.05l.004.004c.307.326.621.649.939.968l.005.005c.017.017.033.032.05.049.003.003.005.006.008.009.015.015.029.029.044.045.004.004.008.007.012.011.016.015.029.029.045.044.003.003.007.008.01.011.018.018.036.036.055.054 9.701 9.603 22.417 14.395 35.13 14.395.504 0 1.01-.008 1.51-.022l24.773-24.528-39.04-48.1"/><path fill="#d4b99a" d="m47.983 68.55c.287 1.611-.801 3.146-2.429 3.432l-19.16 3.344c-1.627.284-3.18-.792-3.468-2.403l-5.804-32.587c-.286-1.611.801-3.149 2.43-3.433l19.16-3.345c1.629-.284 3.182.792 3.467 2.404l5.806 32.588"/><path fill="#a8282c" d="m39 50.776c-.335-1.883-2.15-3.14-4.054-2.808-1.902.333-3.17 2.128-2.835 4.01l.041.183h-.01l-.009.002-.022-.186c-.335-1.882-2.15-3.14-4.052-2.808s-3.174 2.129-2.837 4.01c0 0 .033 4.233 8.375 7.138 6.832-5.554 5.403-9.544 5.403-9.544"/><path fill="#d4b99a" d="m77.08 72.925c-.287 1.612-1.84 2.688-3.467 2.403l-19.16-3.344c-1.629-.285-2.716-1.822-2.428-3.433l5.803-32.586c.287-1.613 1.84-2.688 3.469-2.405l19.16 3.344c1.627.286 2.714 1.823 2.427 3.434l-5.804 32.587"/><path fill="#a8282c" d="m72.43 55.31l-6.65 6.086-4.15-7.97 6.652-6.084 4.148 7.968"/><path fill="#f5e5cd" d="m63.53 63.62c0 1.741-1.425 3.151-3.182 3.151h-20.696c-1.758 0-3.183-1.41-3.183-3.151v-35.2c0-1.74 1.425-3.152 3.183-3.152h20.696c1.757 0 3.182 1.412 3.182 3.152v35.2"/><path fill="#212b38" d="m57.08 47.541c-.116-2.424-2.678-3.354-4.209-4.849-1.109-1.081-2.073-2.37-2.721-3.777-.049-.106-.099-.212-.14-.321l-.006.015v-.011c-.04.109-.089.215-.139.32-.646 1.408-1.611 2.695-2.721 3.777-1.531 1.496-4.093 2.424-4.21 4.85-.062 1.299.595 2.584 1.772 3.199.689.36 1.482.459 2.251.387.487-.045.97-.16 1.432-.317.116-.039.625-.207 1.031-.376-.136.831-.715 2.026-2.922 1.944v1.061h7.081v-1.061c-2.184.082-2.773-1.089-2.916-1.919.393.16.854.31.961.347.465.157.947.272 1.436.318.765.073 1.56-.027 2.249-.387 1.178-.616 1.834-1.899 1.771-3.2"/></g></svg>