<svg xmlns="http://www.w3.org/2000/svg" viewBox="0 0 100 100" enable-background="new 0 0 100 100"><circle fill="#4d6323" cx="50" cy="50" r="50"/><path opacity=".5" fill="#2f3d1c" d="m14.861 85.57c7.996 7.898 17.981 12.549 28.321 13.964l27.09-27.09-.895-9.333 9.127-9.127-23.22 4.393c1.327-.822 2.142-1.326 2.142-1.326l-8.786-27.659-19.18-6.256-29.394 29.393c.607 12.04 5.54 23.903 14.794 33.04"/><path fill="#868a93" d="m64.31 19.63c0 0-5.271-3.716-16.334-3.716s-23.25 7.346-24.631 18.841c-1.383 11.494 7.605 22.92 7.605 22.92s3.89 6.551.605 13.638-3.803 8.988-1.124 8.988h26.706c0 0 1.383-.087 1.47-1.47.086-1.383-.605-5.1 4.58-5.1s11.06-.496 9.68-9.928c0 0 2.161-.936 1.21-3.368l1.124-.996c0 0-2.506-3.599-.691-4.202 1.814-.605 6.59-.629 4.115-4.722-2.474-4.094-5.066-6.859-5.066-6.859s2.334-16.939-9.249-24.03"/><ellipse fill="#fff" cx="48.45" cy="37.592" rx="18.279" ry="15.887"/><g fill="#6d7584"><circle cx="37.3" cy="41.23" r="2.453"/><circle cx="54.98" cy="44.905" r="2.453"/><circle cx="59.885" cy="34.36" r="2.452"/><circle cx="45.538" cy="27.27" r="2.452"/><circle cx="48.45" cy="36.813" r="2.453"/><path d="m55.28 45.496l-18.786-3.902 8.846-14.999 15.232 7.525-5.292 11.376m-17.16-4.623l16.562 3.441 4.518-9.712-13.461-6.649-7.619 12.92"/><path d="m54.58 45.23l-6.592-8.17-2.948-9.635.99-.305 2.892 9.446 6.458 8.01z"/><path transform="matrix(.3681.9298-.9298.3681 63.38-15.211)" d="m42.36 33.03h1.037v11.994h-1.037z"/></g></svg>