<svg xmlns="http://www.w3.org/2000/svg" viewBox="0 0 100 100" enable-background="new 0 0 100 100"><circle cx="50" cy="50" r="50" fill="#518ebc"/><path d="m88.2 58l-1.2-3.3-3-3.3-4.6-1.6h-7.7l7.7-7.7-8.4-4.7-1.8-2.6-6.2 6.2-10.7-.9-12.1-2.7h-2.4l-.1-2.2c0 0 1.9-1.9 1.9-1.9l-2.4-2.5-2.8 2.8-.1-.4-16.9 16.9-.2-.3-15 15c6.3 20.4 25.3 35.2 47.8 35.2.6 0 1.2 0 1.9 0l34.3-34.3 2-7.7" fill="#417ca5"/><path d="m70.6 41.6h-16.8c-.8 0-1.5-.7-1.5-1.5v-2c0-.8.7-1.5 1.5-1.5h16.8c.8 0 1.5.7 1.5 1.5v2c0 .8-.7 1.5-1.5 1.5" fill="#af6b38"/><g fill="#363d42"><path d="m24.4 47.1c-6.2.1-11.2 5.2-11.2 11.5.1 6.2 5.2 11.2 11.5 11.2 6.2-.1 11.2-5.2 11.2-11.5-.2-6.3-5.3-11.3-11.5-11.2m.2 17.7c-3.6 0-6.5-2.8-6.5-6.4 0-3.6 2.8-6.5 6.4-6.5 3.6 0 6.5 2.8 6.5 6.4 0 3.6-2.8 6.5-6.4 6.5"/><path d="m77.3 47.1c-6.2.1-11.2 5.2-11.2 11.5.1 6.2 5.2 11.2 11.5 11.2 6.2-.1 11.2-5.2 11.2-11.5-.1-6.3-5.2-11.3-11.5-11.2m.3 17.7c-3.6 0-6.5-2.8-6.5-6.4 0-3.6 2.8-6.5 6.4-6.5 3.6 0 6.5 2.8 6.5 6.4 0 3.6-2.9 6.5-6.4 6.5"/></g><path transform="matrix(.9755-.2201.2201.9755-9.06 16.811)" fill="#a7bdc1" d="m69.3 41.1h3.2v15.9h-3.2z"/><g fill="#daeaed"><path d="m25.5 59.3c-.3.5-.9.7-1.5.4-.5-.3-.8-.9-.5-1.4l13.6-26.2c.3-.5.9-.7 1.5-.4.5.3.8.9.5 1.4l-13.6 26.2"/><path transform="matrix(.976.2179-.2179.976 13.725-13.05)" d="m53.2 53h25.7v5.5h-25.7z"/></g><circle cx="38.4" cy="32" r="1.7" fill="#363d42"/><g fill="#8e4f24"><path d="m57.9 36.7h1.2v4.3h-1.2z"/><path d="m64.9 36.7h1.2v4.3h-1.2z"/><path d="m61.4 36.7h1.2v4.3h-1.2z"/></g><path d="m62.9 44c-1.5-1.1-3-2.2-4.4-3.4-3.6-.1-7.1.3-10.7 0-2 .1-4 .2-6 .3-.6.1-1.2.3-1.8.5-.7.3-1.2.8-1.7 1.4-.1.6-.3 1.1-.6 1.6l1 .5 7.2 15h10v-8.6l8.7-5.9c-.4-.5-1-1-1.7-1.4" fill="#a7bdc1"/><path d="m69.2 34.8v5h-27.8v-3.3l1.7.4-8.8-3.8-3.8 7.7 8.4 4h9.2l3-1.5 5 7.9 13.8-9.2h9.4v-2.1c0 0 .2-5.1-10.1-5.1" fill="#cc1d1d"/><circle cx="62.6" cy="45.7" r="5" fill="#fff"/><ellipse transform="matrix(.9983-.05856.05856.9983-2.21 2.834)" cx="47.2" cy="39.1" rx="8.7" ry="6.1" fill="#fc3838"/><circle cx="44.9" cy="38.1" r="1.9" fill="#fff"/><g fill="#daeaed"><path d="m45.7 62l-5.7-11.7 1.2-.5-1.5-3-2.8 1.2c-.9.4-1.3 1.5-.9 2.5l6.7 13.8c.2.8.9 1.4 1.8 1.4h20.5l3.7-3.7h-23"/><path transform="matrix(-.9011.4336-.4336-.9011 110.03 78.48)" d="m44.1 46.8h4v10h-4z"/><circle cx="51.7" cy="51.1" r="2.3"/><circle cx="53.5" cy="56.2" r="1.6"/></g></svg>